<svg width="256" height="28" viewBox="0 0 256 28" fill="none" xmlns="http://www.w3.org/2000/svg">
<g clip-path="url(#clip0_2_258)">
<path d="M38.5707 27.5383C38.241 27.5383 38.027 27.4111 37.9287 27.1566C37.8304 26.9021 37.7783 26.6014 37.7783 26.2486V9.28567C37.7783 8.95601 37.8015 8.77094 37.8477 8.72468C37.894 8.67841 38.0791 8.65527 38.4087 8.65527H43.3247C44.9036 8.65527 46.3668 8.69576 47.7028 8.78251C49.0388 8.86926 50.2128 9.08903 51.2191 9.44183C52.2254 9.8004 53.0062 10.373 53.5556 11.1711C54.1109 11.9692 54.3885 13.0854 54.3885 14.5197C54.3885 15.5492 54.1745 16.3993 53.7465 17.0702C53.3185 17.7411 52.7517 18.2732 52.0462 18.6549C51.3406 19.0366 50.5656 19.32 49.727 19.4935C48.8826 19.667 48.0498 19.7711 47.2285 19.8058L53.4631 26.3643C53.654 26.5551 53.7523 26.7576 53.7523 26.9715C53.7523 27.3417 53.5614 27.5325 53.1739 27.5325C53.0583 27.5325 52.931 27.5036 52.7864 27.44C52.6419 27.3764 52.4973 27.2723 52.3642 27.1277L45.5687 19.8752H39.23V26.2486C39.23 26.5783 39.1895 26.8732 39.1085 27.1393C39.0276 27.4053 38.854 27.5383 38.5822 27.5383H38.5707ZM39.2126 18.759H45.5687C46.8815 18.759 48.096 18.6665 49.2123 18.4814C50.3285 18.2963 51.2307 17.8973 51.9131 17.2958C52.5956 16.6943 52.9368 15.7689 52.9368 14.5255C52.9368 13.0218 52.5725 11.9403 51.838 11.281C51.1035 10.6217 50.0219 10.2052 48.5934 10.0375C47.1649 9.86981 45.4067 9.78305 43.3131 9.78305H39.2126V18.7648V18.759Z" fill="white"/>
<path d="M53.1633 27.6831C53.0303 27.6831 52.8799 27.6484 52.718 27.579C52.5503 27.5096 52.3941 27.3939 52.2437 27.232L45.4944 20.0258H39.3639V26.2546C39.3639 26.5958 39.3235 26.9081 39.2367 27.1857C39.1384 27.5154 38.9071 27.6889 38.5716 27.6889C38.0858 27.6889 37.8776 27.4344 37.7908 27.2147C37.681 26.9428 37.6289 26.619 37.6289 26.2546V9.29166C37.6289 8.83477 37.6694 8.69597 37.7388 8.63235C37.8082 8.56873 37.9412 8.52246 38.3981 8.52246H43.3141C44.8929 8.52246 46.3677 8.56295 47.7037 8.6497C49.0513 8.73645 50.2427 8.96201 51.2606 9.32058C52.29 9.68494 53.0997 10.2864 53.6665 11.1019C54.2333 11.9174 54.5224 13.0741 54.5224 14.5315C54.5224 15.5841 54.2969 16.469 53.8573 17.1572C53.4178 17.8454 52.8279 18.3949 52.0992 18.7881C51.382 19.1756 50.5897 19.4648 49.7395 19.6441C48.9992 19.8002 48.2589 19.8986 47.5302 19.9448L53.5508 26.272C53.7648 26.4859 53.8805 26.7288 53.8805 26.9833C53.8805 27.4344 53.626 27.6889 53.1575 27.6889L53.1633 27.6831ZM39.0748 19.7366H45.6217L52.4577 27.0354C52.5792 27.1684 52.7064 27.2609 52.8337 27.313C52.9609 27.365 53.0766 27.3939 53.1691 27.3939C53.4698 27.3939 53.6029 27.2725 53.6029 26.9775C53.6029 26.804 53.5219 26.6363 53.36 26.4686L46.8998 19.6788L47.2179 19.6672C48.0334 19.6325 48.8662 19.5284 49.6932 19.3549C50.5145 19.1814 51.2837 18.9038 51.9719 18.5337C52.6544 18.1635 53.2096 17.6488 53.6202 17.001C54.0308 16.3533 54.239 15.5263 54.239 14.5315C54.239 13.1319 53.9672 12.0388 53.4351 11.2696C52.9031 10.5004 52.1396 9.93941 51.168 9.59241C50.179 9.2454 49.0108 9.02562 47.6922 8.93887C46.362 8.85212 44.8929 8.81163 43.3198 8.81163H38.4039C38.1089 8.81163 37.9933 8.82899 37.9528 8.84055C37.9412 8.88104 37.9239 8.99671 37.9239 9.29166V26.2546C37.9239 26.5843 37.9701 26.8734 38.0684 27.1048C38.1205 27.232 38.2246 27.3939 38.5774 27.3939C38.7856 27.3939 38.9013 27.3014 38.9649 27.099C39.0401 26.8445 39.0748 26.5611 39.0748 26.2488V19.7308V19.7366ZM45.5754 18.9096H39.0748V9.63867H43.3198C45.4077 9.63867 47.189 9.72543 48.6175 9.89315C50.0692 10.0667 51.1854 10.4946 51.943 11.1771C52.7064 11.8653 53.0939 12.9931 53.0939 14.5315C53.0939 15.8096 52.7353 16.7813 52.0182 17.4117C51.3184 18.0305 50.3815 18.4411 49.2421 18.632C48.1201 18.817 46.8882 18.9154 45.5754 18.9154V18.9096ZM39.3639 18.6204H45.5754C46.8709 18.6204 48.0912 18.5279 49.1959 18.3428C50.2832 18.1635 51.168 17.776 51.8273 17.1919C52.4751 16.6193 52.8047 15.7229 52.8047 14.5315C52.8047 13.0798 52.452 12.0215 51.7522 11.3968C51.0466 10.7607 49.9766 10.35 48.5886 10.1881C47.1716 10.0204 45.4019 9.93363 43.3256 9.93363H39.3697V18.6262L39.3639 18.6204Z" fill="white"/>
<path d="M57.8888 27.7071C57.5591 27.7071 57.3799 27.5567 57.3452 27.256C57.3105 26.9552 57.3741 26.6661 57.5302 26.3827L66.8648 9.52385C67.044 9.19419 67.1886 8.96863 67.287 8.84718C67.3911 8.72573 67.5414 8.66211 67.7438 8.66211C67.9 8.66211 68.0446 8.71994 68.166 8.8414C68.2875 8.96285 68.4436 9.18841 68.6229 9.52963L77.9748 26.4058C78.0963 26.6198 78.1599 26.8396 78.1599 27.0651C78.1599 27.4931 77.969 27.7071 77.5815 27.7071C77.437 27.7071 77.2808 27.655 77.1246 27.5452C76.9685 27.4353 76.8066 27.2444 76.6504 26.961L73.7702 21.7443H61.7059L58.791 27.0304C58.5539 27.4815 58.2474 27.7071 57.8772 27.7071H57.8888ZM62.2091 20.7438H73.2902L67.7496 10.6285L62.2091 20.7438Z" fill="white"/>
<path d="M77.5931 27.8517C77.4196 27.8517 77.2345 27.788 77.0552 27.6666C76.8759 27.5451 76.7082 27.3369 76.5347 27.0304L73.695 21.8831H61.8042L58.9298 27.094C58.6695 27.5914 58.3167 27.8459 57.8888 27.8459C57.4897 27.8459 57.2468 27.6435 57.2005 27.2675C57.1658 26.9379 57.2294 26.614 57.403 26.3075L66.7375 9.44864C66.9226 9.11899 67.0671 8.88186 67.177 8.74884C67.31 8.59269 67.5009 8.51172 67.7438 8.51172C67.9404 8.51172 68.114 8.5869 68.2643 8.73149C68.4031 8.86451 68.5593 9.09585 68.7501 9.45443L78.102 26.3306C78.235 26.5619 78.3044 26.8106 78.3044 27.0593C78.3044 27.5683 78.05 27.8459 77.5815 27.8459L77.5931 27.8517ZM61.6307 21.5997H73.8627L76.7834 26.8916C76.928 27.1519 77.0726 27.3312 77.2114 27.4237C77.3444 27.5162 77.4716 27.5625 77.5873 27.5625C77.8013 27.5625 78.021 27.5047 78.021 27.0651C78.021 26.8685 77.9632 26.6661 77.8533 26.4752L68.5014 9.59901C68.3279 9.27514 68.1834 9.05537 68.0677 8.94548C67.9694 8.85294 67.8653 8.80668 67.7438 8.80668C67.5876 8.80668 67.472 8.85294 67.3968 8.9397C67.2985 9.06115 67.1597 9.28092 66.9862 9.59323L57.6516 26.4521C57.5071 26.7123 57.4492 26.9668 57.4839 27.2386C57.5071 27.4642 57.6285 27.5567 57.883 27.5567C58.2011 27.5567 58.4555 27.3601 58.6695 26.9552L61.6249 21.5939L61.6307 21.5997ZM73.5331 20.8884H61.9661L67.7496 10.3277L73.5331 20.8884ZM62.4519 20.5992H73.0472L67.7496 10.9292L62.4519 20.5992Z" fill="white"/>
<path d="M81.8441 27.5383C81.5723 27.5383 81.3005 27.521 81.0229 27.4863C80.7452 27.4516 80.6064 27.2723 80.6064 26.9426C80.6064 26.6592 80.7395 26.5031 81.0055 26.4684C81.2715 26.4337 81.5492 26.4163 81.8441 26.4163H87.8936V9.77727H81.8441C81.5492 9.77727 81.2715 9.75992 81.0055 9.72522C80.7395 9.69052 80.6064 9.53436 80.6064 9.25097C80.6064 8.92131 80.7452 8.74203 81.0229 8.70732C81.3005 8.67262 81.5723 8.65527 81.8441 8.65527H95.3832C95.7129 8.65527 95.9963 8.67262 96.2392 8.70732C96.4821 8.74203 96.6035 8.90975 96.6035 9.21627C96.6035 9.5228 96.4821 9.69052 96.2392 9.72522C95.9963 9.75992 95.7129 9.77727 95.3832 9.77727H89.3337V26.4163H95.3832C95.7129 26.4163 95.9963 26.4337 96.2392 26.4684C96.4821 26.5031 96.6035 26.6708 96.6035 26.9773C96.6035 27.2839 96.4821 27.4516 96.2392 27.4863C95.9963 27.521 95.7129 27.5383 95.3832 27.5383H81.8441Z" fill="white"/>
<path d="M95.3833 27.683H81.8442C81.5666 27.683 81.289 27.6656 81.0056 27.6309C80.8031 27.6078 80.4619 27.4863 80.4619 26.9427C80.4619 26.5899 80.647 26.3701 80.9882 26.3238C81.26 26.2891 81.5492 26.2718 81.8442 26.2718H87.7491V9.92191H81.8442C81.5434 9.92191 81.2543 9.90456 80.9882 9.86986C80.6528 9.82938 80.4619 9.6096 80.4619 9.25103C80.4619 8.71317 80.8031 8.59171 81.0056 8.56279C81.289 8.52809 81.5666 8.51074 81.8442 8.51074H95.3833C95.7129 8.51074 96.0079 8.52809 96.2566 8.56279C96.4417 8.58593 96.7482 8.70738 96.7482 9.21633C96.7482 9.72527 96.4417 9.84094 96.2566 9.86986C96.0079 9.90456 95.7129 9.92191 95.3833 9.92191H89.4784V26.2718H95.3833C95.7129 26.2718 96.0079 26.2891 96.2566 26.3238C96.4417 26.347 96.7482 26.4684 96.7482 26.9774C96.7482 27.4863 96.4417 27.602 96.2566 27.6309C96.0079 27.6656 95.7129 27.683 95.3833 27.683ZM81.8442 26.5668C81.555 26.5668 81.2832 26.5841 81.0229 26.6188C80.8321 26.6419 80.7511 26.7403 80.7511 26.9485C80.7511 27.2666 80.8957 27.3302 81.0403 27.3475C81.3121 27.3822 81.5781 27.3996 81.8442 27.3996H95.3833C95.7014 27.3996 95.9848 27.3822 96.2161 27.3475C96.3376 27.3302 96.4532 27.2723 96.4532 26.9832C96.4532 26.694 96.3318 26.6362 96.2161 26.6188C95.979 26.5841 95.7014 26.5668 95.3833 26.5668H89.1892V9.63852H95.3833C95.7014 9.63852 95.9848 9.62117 96.2161 9.58647C96.3376 9.56912 96.4532 9.51129 96.4532 9.22211C96.4532 8.93294 96.3318 8.8751 96.2161 8.85775C95.979 8.82305 95.7014 8.8057 95.3833 8.8057H81.8442C81.5781 8.8057 81.3121 8.82305 81.0403 8.85775C80.8957 8.8751 80.7511 8.93872 80.7511 9.25681C80.7511 9.46502 80.8321 9.56334 81.0229 9.58647C81.2832 9.62117 81.555 9.63852 81.8442 9.63852H88.0383V26.5668H81.8442Z" fill="white"/>
<path d="M112.092 27.8742C110.49 27.8742 108.905 27.7701 107.338 27.5677C105.77 27.3652 104.388 27.1165 103.185 26.8216C101.982 26.5266 101.109 26.2548 100.565 26.0061C100.259 25.8615 100.108 25.6418 100.108 25.3468C100.108 25.0171 100.253 24.8552 100.548 24.8552C100.629 24.8552 100.704 24.8726 100.785 24.9073C101.375 25.1444 102.283 25.4046 103.515 25.6938C104.747 25.983 106.141 26.2317 107.69 26.4399C109.246 26.6481 110.796 26.7522 112.34 26.7522C113.885 26.7522 115.232 26.6134 116.516 26.3358C117.8 26.0582 118.829 25.5955 119.61 24.9362C120.391 24.2769 120.778 23.3862 120.778 22.2584C120.778 21.3678 120.484 20.668 119.899 20.1648C119.309 19.6616 118.523 19.2857 117.528 19.037C116.533 18.7883 115.417 18.6148 114.18 18.5107C112.942 18.4066 111.664 18.3315 110.339 18.2794C109.015 18.2273 107.737 18.1406 106.499 18.0191C105.261 17.8977 104.145 17.6837 103.15 17.3945C102.156 17.0996 101.363 16.66 100.779 16.0701C100.189 15.4802 99.9001 14.6994 99.9001 13.7162C99.9001 12.6289 100.189 11.7383 100.773 11.0327C101.358 10.3271 102.138 9.77191 103.122 9.37285C104.105 8.97379 105.204 8.6904 106.424 8.53424C107.644 8.37809 108.893 8.29712 110.166 8.29712C111.565 8.29712 112.93 8.37809 114.249 8.54003C115.573 8.70196 116.759 8.91595 117.806 9.17621C118.858 9.43646 119.668 9.7025 120.246 9.97433C120.426 10.0553 120.518 10.2057 120.518 10.4312C120.518 10.5874 120.466 10.7377 120.356 10.8708C120.246 11.0038 120.102 11.0732 119.905 11.0732C119.79 11.0732 119.697 11.0501 119.616 11.0038C118.43 10.5064 116.996 10.1189 115.313 9.83552C113.63 9.55213 111.936 9.41333 110.229 9.41333C108.668 9.41333 107.216 9.54057 105.857 9.78347C104.504 10.0322 103.411 10.4601 102.578 11.0732C101.745 11.6862 101.334 12.5306 101.334 13.6121C101.334 14.3929 101.629 14.9944 102.214 15.4281C102.803 15.8561 103.59 16.1742 104.585 16.3882C105.58 16.5964 106.696 16.7468 107.933 16.8277C109.171 16.9087 110.449 16.9897 111.774 17.0649C113.098 17.1401 114.376 17.2557 115.614 17.4119C116.852 17.568 117.968 17.8225 118.962 18.1753C119.957 18.5281 120.75 19.0255 121.334 19.6848C121.924 20.3383 122.213 21.2001 122.213 22.2584C122.213 23.3168 121.935 24.2479 121.374 24.9709C120.813 25.6938 120.056 26.2664 119.096 26.6886C118.135 27.1108 117.048 27.4115 115.845 27.5966C114.636 27.7759 113.381 27.8684 112.086 27.8684L112.092 27.8742Z" fill="white"/>
<path d="M112.092 28.0186C110.49 28.0186 108.882 27.9145 107.321 27.7121C105.759 27.5097 104.36 27.2552 103.157 26.966C101.948 26.6711 101.063 26.3934 100.514 26.1448C100.161 25.9713 99.97 25.6994 99.97 25.3524C99.97 24.9418 100.178 24.7162 100.554 24.7162C100.652 24.7162 100.751 24.7394 100.849 24.7799C101.422 25.0112 102.335 25.2772 103.556 25.5606C104.776 25.844 106.176 26.0985 107.72 26.3009C109.258 26.5091 110.82 26.6132 112.352 26.6132C113.885 26.6132 115.233 26.4744 116.499 26.2026C117.754 25.9308 118.772 25.4739 119.53 24.8377C120.27 24.2131 120.646 23.3513 120.646 22.2698C120.646 21.4254 120.368 20.7603 119.813 20.2861C119.246 19.8003 118.466 19.4301 117.5 19.1872C116.517 18.9443 115.4 18.765 114.174 18.6667C112.948 18.5684 111.658 18.4874 110.346 18.4412C109.027 18.3891 107.731 18.3024 106.5 18.1751C105.256 18.0479 104.123 17.8397 103.128 17.5447C102.116 17.244 101.294 16.7871 100.693 16.1856C100.091 15.5841 99.7676 14.7455 99.7676 13.7276C99.7676 12.6114 100.074 11.6803 100.676 10.9516C101.271 10.2286 102.081 9.65607 103.082 9.25122C104.07 8.84638 105.192 8.56299 106.419 8.40105C108.975 8.07139 111.751 8.09453 114.284 8.40684C115.603 8.56877 116.806 8.78276 117.858 9.04302C118.917 9.30328 119.744 9.5751 120.328 9.84692C120.49 9.91632 120.681 10.0783 120.681 10.4368C120.681 10.6277 120.617 10.807 120.49 10.9689C120.357 11.1424 120.166 11.2292 119.929 11.2292C119.79 11.2292 119.669 11.2003 119.57 11.1424C118.413 10.6624 116.979 10.2691 115.314 9.99151C113.642 9.7139 111.942 9.56932 110.253 9.56932C108.709 9.56932 107.251 9.69655 105.91 9.93946C104.585 10.1824 103.498 10.6046 102.688 11.2003C101.89 11.7844 101.503 12.5825 101.503 13.6235C101.503 14.3638 101.769 14.9132 102.324 15.3181C102.891 15.7345 103.671 16.0468 104.643 16.2492C105.626 16.4574 106.742 16.602 107.969 16.6888C109.2 16.7755 110.49 16.8507 111.803 16.9259C113.122 17.0011 114.417 17.1168 115.649 17.2729C116.892 17.4291 118.026 17.6893 119.027 18.0421C120.039 18.4007 120.86 18.9212 121.456 19.5921C122.063 20.2745 122.375 21.171 122.375 22.264C122.375 23.3571 122.08 24.3172 121.508 25.0632C120.935 25.8035 120.149 26.3934 119.171 26.8272C118.205 27.2552 117.095 27.5617 115.88 27.7468C114.666 27.9261 113.393 28.0186 112.098 28.0186H112.092ZM100.554 25.0054C100.375 25.0054 100.259 25.0632 100.259 25.3524C100.259 25.5895 100.381 25.7573 100.635 25.8845C101.161 26.1274 102.035 26.3992 103.226 26.6884C104.417 26.9776 105.811 27.232 107.361 27.4287C110.16 27.793 113.145 27.8624 115.834 27.4634C117.025 27.2841 118.107 26.9834 119.05 26.567C119.981 26.1563 120.733 25.5895 121.271 24.8897C121.808 24.1957 122.08 23.3166 122.08 22.2698C122.08 21.223 121.797 20.4133 121.236 19.7887C120.669 19.1525 119.888 18.6609 118.922 18.3197C117.945 17.9727 116.829 17.7182 115.609 17.5621C114.382 17.4059 113.093 17.2903 111.78 17.2151C110.461 17.1399 109.172 17.0647 107.94 16.9779C106.702 16.8912 105.568 16.7466 104.574 16.5326C103.562 16.3186 102.746 15.989 102.145 15.5494C101.52 15.0925 101.202 14.4448 101.202 13.6177C101.202 12.49 101.641 11.5935 102.509 10.9574C103.353 10.3385 104.475 9.89319 105.846 9.6445C107.205 9.39581 108.686 9.26857 110.241 9.26857C111.948 9.26857 113.665 9.41316 115.348 9.69655C117.037 9.97994 118.494 10.3732 119.686 10.8764C119.755 10.9169 119.83 10.9342 119.917 10.9342C120.068 10.9342 120.172 10.8879 120.253 10.7838C120.339 10.674 120.38 10.5583 120.38 10.4311C120.38 10.2171 120.282 10.1419 120.195 10.1072C119.628 9.84114 118.818 9.5751 117.777 9.32063C116.736 9.06615 115.545 8.85216 114.238 8.69023C111.728 8.37792 108.981 8.35479 106.447 8.68444C105.245 8.8406 104.146 9.1182 103.18 9.51148C102.226 9.89897 101.456 10.4484 100.89 11.1309C100.334 11.8075 100.051 12.6808 100.051 13.7219C100.051 14.6588 100.334 15.4164 100.89 15.9774C101.456 16.5442 102.231 16.9779 103.203 17.2613C104.186 17.5505 105.302 17.7587 106.523 17.886C107.749 18.0074 109.038 18.0999 110.351 18.1462C111.67 18.1983 112.96 18.2734 114.197 18.3775C115.435 18.4817 116.569 18.6552 117.569 18.9096C118.581 19.1641 119.397 19.5516 119.998 20.0663C120.617 20.5984 120.929 21.3387 120.929 22.2698C120.929 23.4381 120.519 24.375 119.709 25.0575C118.917 25.7226 117.853 26.2026 116.557 26.486C115.273 26.7636 113.856 26.9024 112.352 26.9024C110.849 26.9024 109.235 26.7983 107.679 26.5901C106.129 26.3819 104.718 26.1274 103.486 25.844C102.254 25.5548 101.329 25.2888 100.739 25.0517C100.676 25.0228 100.618 25.0112 100.554 25.0112V25.0054Z" fill="white"/>
<path d="M126.614 27.5387C126.4 27.5387 126.272 27.504 126.232 27.4346C126.191 27.3652 126.174 27.2033 126.174 26.943V9.45957C126.174 9.12992 126.197 8.91593 126.243 8.81761C126.29 8.71929 126.475 8.66724 126.804 8.66724H142.275C142.605 8.66724 142.894 8.68459 143.149 8.71929C143.403 8.75399 143.53 8.93328 143.53 9.26294C143.53 9.54633 143.403 9.70248 143.149 9.73718C142.894 9.77188 142.605 9.78923 142.275 9.78923H127.62V17.2094H142.194C142.443 17.2094 142.651 17.2441 142.819 17.3135C142.987 17.3829 143.073 17.5275 143.073 17.7531C143.073 18.0018 143.004 18.1637 142.859 18.2447C142.715 18.3256 142.536 18.3661 142.31 18.3661H127.62V26.4341H142.31C142.64 26.4341 142.929 26.4514 143.183 26.4861C143.438 26.5208 143.565 26.677 143.565 26.9604C143.565 27.29 143.461 27.4635 143.253 27.4925C143.044 27.5214 142.773 27.5387 142.449 27.5503H126.625L126.614 27.5387Z" fill="white"/>
<path d="M126.613 27.6834C126.336 27.6834 126.18 27.6313 126.11 27.5099C126.076 27.4462 126.029 27.3248 126.029 26.9431V9.45963C126.029 8.99117 126.076 8.83501 126.11 8.75983C126.185 8.59211 126.399 8.52271 126.804 8.52271H142.275C142.611 8.52271 142.905 8.54006 143.166 8.57476C143.357 8.59789 143.675 8.72513 143.675 9.26299C143.675 9.61578 143.495 9.83556 143.166 9.88182C142.905 9.91652 142.605 9.93387 142.275 9.93387H127.764V17.0649H142.194C142.46 17.0649 142.692 17.1054 142.877 17.1748C143.033 17.2384 143.224 17.3888 143.224 17.7473C143.224 18.0539 143.125 18.2563 142.94 18.3662C142.778 18.4587 142.57 18.505 142.316 18.505H127.77V26.2838H142.316C142.651 26.2838 142.946 26.3011 143.206 26.3358C143.53 26.3821 143.715 26.6019 143.715 26.9546C143.715 27.4636 143.478 27.6024 143.276 27.6313C143.062 27.6602 142.79 27.6776 142.454 27.6891H126.625L126.613 27.6834ZM126.359 27.3653C126.359 27.3653 126.417 27.3942 126.613 27.3942H142.437C142.755 27.3826 143.021 27.3653 143.224 27.3364C143.276 27.3306 143.409 27.3132 143.409 26.9489C143.409 26.6886 143.287 26.6366 143.154 26.6192C142.905 26.5845 142.622 26.5672 142.298 26.5672H127.464V18.21H142.298C142.501 18.21 142.663 18.1753 142.778 18.1117C142.871 18.0597 142.917 17.9382 142.917 17.7473C142.917 17.5334 142.83 17.4697 142.755 17.4408C142.605 17.3772 142.408 17.3483 142.183 17.3483H127.464V9.63892H142.264C142.582 9.63892 142.871 9.62157 143.119 9.58686C143.252 9.56951 143.374 9.51746 143.374 9.25721C143.374 8.93333 143.247 8.8755 143.119 8.85815C142.871 8.82345 142.587 8.8061 142.264 8.8061H126.793C126.423 8.8061 126.365 8.8755 126.365 8.8755C126.347 8.92177 126.313 9.05479 126.313 9.45963V26.9431C126.313 27.2785 126.347 27.3537 126.353 27.3595L126.359 27.3653Z" fill="white"/>
<path d="M156.774 27.5386C156.421 27.5386 156.207 27.4172 156.12 27.1685C156.034 26.9198 155.993 26.648 155.993 26.353V9.84699C155.993 9.55203 156.039 9.28021 156.138 9.03152C156.236 8.78283 156.456 8.66138 156.809 8.66138C157.057 8.66138 157.225 8.78861 157.306 9.04309C157.387 9.29756 157.433 9.5636 157.433 9.84699V17.2672H172.43V9.84699C172.43 9.55203 172.464 9.28021 172.54 9.03152C172.615 8.78283 172.812 8.66138 173.141 8.66138C173.471 8.66138 173.685 8.78861 173.76 9.03152C173.835 9.28021 173.87 9.55203 173.87 9.84699V26.353C173.87 26.648 173.835 26.9198 173.76 27.1685C173.685 27.4172 173.488 27.5386 173.159 27.5386C172.829 27.5386 172.615 27.4172 172.54 27.1685C172.464 26.9198 172.43 26.648 172.43 26.353V18.3198H157.433V26.353C157.433 26.6364 157.387 26.9025 157.289 27.1569C157.19 27.4114 157.023 27.5386 156.774 27.5386Z" fill="white"/>
<path d="M173.159 27.6833C172.65 27.6833 172.465 27.423 172.401 27.209C172.326 26.9488 172.285 26.6596 172.285 26.3531V18.4644H157.578V26.3531C157.578 26.6538 157.526 26.9372 157.422 27.209C157.306 27.5213 157.081 27.6833 156.768 27.6833C156.248 27.6833 156.051 27.4288 155.982 27.2148C155.889 26.9546 155.849 26.6654 155.849 26.3531V9.84704C155.849 9.53474 155.901 9.24556 156.005 8.97952C156.086 8.76553 156.294 8.51685 156.809 8.51685C157.121 8.51685 157.341 8.68457 157.445 8.99687C157.532 9.26291 157.578 9.55209 157.578 9.84704V17.1227H172.285V9.84704C172.285 9.54052 172.326 9.25135 172.401 8.99109C172.465 8.77132 172.644 8.51685 173.141 8.51685C173.639 8.51685 173.835 8.7771 173.899 8.99109C173.974 9.25135 174.015 9.54052 174.015 9.84704V26.3531C174.015 26.6596 173.974 26.9488 173.899 27.209C173.835 27.4288 173.656 27.6833 173.159 27.6833ZM157.289 18.1753H172.574V26.3531C172.574 26.6307 172.609 26.8909 172.679 27.1223C172.713 27.238 172.8 27.3941 173.159 27.3941C173.517 27.3941 173.587 27.238 173.621 27.1223C173.691 26.8909 173.725 26.6307 173.725 26.3531V9.84704C173.725 9.56944 173.691 9.30918 173.621 9.07206C173.587 8.95639 173.5 8.80023 173.141 8.80023C172.783 8.80023 172.713 8.95639 172.679 9.07206C172.609 9.3034 172.574 9.56365 172.574 9.84704V17.4118H157.289V9.84704C157.289 9.581 157.248 9.32653 157.167 9.08941C157.104 8.89277 156.988 8.80602 156.803 8.80602C156.421 8.80602 156.317 8.96796 156.271 9.08363C156.184 9.31497 156.138 9.56944 156.138 9.84704V26.3531C156.138 26.6307 156.178 26.8852 156.259 27.1223C156.3 27.238 156.398 27.3999 156.774 27.3999C156.965 27.3999 157.081 27.3131 157.156 27.1107C157.242 26.8736 157.289 26.6191 157.289 26.3589V18.181V18.1753Z" fill="white"/>
<path d="M190.389 27.8912C186.098 27.8912 182.952 27.0815 180.951 25.4679C178.95 23.8543 177.949 21.3964 177.949 18.0998C177.949 14.8032 178.95 12.3452 180.951 10.7316C182.952 9.11804 186.098 8.30835 190.389 8.30835C194.681 8.30835 197.833 9.11804 199.834 10.7316C201.841 12.3452 202.841 14.8032 202.841 18.0998C202.841 21.3964 201.841 23.8543 199.834 25.4679C197.827 27.0815 194.681 27.8912 190.389 27.8912ZM190.389 26.775C194.096 26.775 196.855 26.1157 198.677 24.8028C200.499 23.49 201.407 21.2518 201.407 18.0998C201.407 14.9478 200.499 12.7154 198.677 11.3967C196.861 10.0839 194.096 9.42456 190.389 9.42456C186.682 9.42456 183.923 10.0839 182.113 11.3967C180.303 12.7154 179.395 14.9478 179.395 18.0998C179.395 21.2518 180.303 23.4842 182.113 24.8028C183.923 26.1215 186.688 26.775 190.389 26.775Z" fill="white"/>
<path d="M190.389 28.0357C186.081 28.0357 182.877 27.2087 180.858 25.5777C178.834 23.941 177.804 21.4252 177.804 18.0939C177.804 14.7626 178.834 12.2468 180.858 10.6101C182.877 8.97914 186.081 8.1521 190.389 8.1521C194.698 8.1521 197.902 8.97914 199.926 10.6043C201.956 12.241 202.986 14.7568 202.986 18.0881C202.986 21.4194 201.956 23.9352 199.926 25.5719C197.902 27.2029 194.698 28.0299 190.389 28.0299V28.0357ZM190.389 8.44706C186.15 8.44706 183.004 9.25096 181.043 10.8356C179.088 12.4145 178.099 14.8552 178.099 18.0939C178.099 21.3326 179.088 23.7733 181.043 25.3522C183.01 26.9368 186.15 27.7407 190.389 27.7407C194.629 27.7407 197.775 26.9368 199.747 25.3522C201.708 23.7733 202.702 21.3326 202.702 18.0939C202.702 14.8552 201.708 12.4145 199.747 10.8356C197.781 9.25096 194.629 8.44706 190.389 8.44706ZM190.389 26.9137C186.671 26.9137 183.86 26.2428 182.026 24.9126C180.181 23.5766 179.245 21.2806 179.245 18.0939C179.245 14.9072 180.181 12.6112 182.026 11.2752C183.854 9.94498 186.671 9.2741 190.389 9.2741C194.108 9.2741 196.925 9.94498 198.758 11.2752C200.609 12.6112 201.546 14.9072 201.546 18.0939C201.546 21.2806 200.609 23.5708 198.758 24.9126C196.925 26.2428 194.108 26.9137 190.389 26.9137ZM190.389 9.56327C186.734 9.56327 183.975 10.2168 182.194 11.5123C180.43 12.7962 179.534 15.0113 179.534 18.0997C179.534 21.1881 180.43 23.4031 182.194 24.6813C183.975 25.971 186.728 26.6303 190.389 26.6303C194.05 26.6303 196.803 25.9768 198.59 24.6813C200.36 23.3973 201.256 21.1823 201.256 18.0997C201.256 15.0171 200.36 12.7962 198.59 11.5181C196.803 10.2284 194.044 9.56905 190.389 9.56905V9.56327Z" fill="white"/>
<path d="M207.658 27.5387C207.328 27.5387 207.126 27.423 207.05 27.1917C206.975 26.9604 206.929 26.6828 206.929 26.3531V9.58103C206.929 9.32077 206.998 9.10678 207.143 8.92749C207.282 8.75399 207.461 8.66724 207.675 8.66724C208.034 8.66724 208.381 8.91014 208.71 9.39596L219.213 25.1906L229.716 9.39596C230.034 8.91014 230.375 8.66724 230.751 8.66724C230.965 8.66724 231.144 8.75399 231.283 8.92749C231.422 9.101 231.497 9.32077 231.497 9.58103V26.3531C231.497 26.6828 231.457 26.9604 231.376 27.1917C231.295 27.423 231.092 27.5387 230.768 27.5387C230.485 27.5387 230.294 27.423 230.202 27.1917C230.109 26.9604 230.057 26.6828 230.057 26.3531V11.3045L220.046 26.0813C219.774 26.463 219.496 26.6596 219.213 26.6596C218.907 26.6596 218.629 26.4688 218.38 26.0813L208.369 11.3045V26.3531C208.369 26.6828 208.323 26.9604 208.224 27.1917C208.126 27.423 207.941 27.5387 207.658 27.5387Z" fill="white"/>
<path d="M230.768 27.6834C230.34 27.6834 230.149 27.4462 230.068 27.2496C229.964 27.0009 229.912 26.7002 229.912 26.3532V11.7788L220.161 26.1623C219.536 27.0414 218.79 26.9836 218.258 26.1623L208.513 11.7788V26.3532C208.513 26.7002 208.461 27.0009 208.357 27.2496C208.276 27.4462 208.085 27.6834 207.657 27.6834C207.165 27.6834 206.98 27.4405 206.911 27.238C206.824 26.9951 206.783 26.6944 206.783 26.3532V9.58108C206.783 9.29191 206.864 9.03744 207.026 8.8408C207.194 8.63259 207.414 8.52271 207.674 8.52271C208.085 8.52271 208.472 8.78875 208.825 9.31504L219.212 24.9246L229.599 9.31504C229.94 8.78875 230.328 8.52271 230.756 8.52271C231.016 8.52271 231.23 8.62681 231.404 8.8408C231.566 9.04322 231.647 9.29191 231.647 9.58108V26.3532C231.647 26.6944 231.606 26.9951 231.519 27.238C231.45 27.4405 231.265 27.6834 230.773 27.6834H230.768ZM230.201 10.8361V26.3532C230.201 26.6597 230.247 26.9257 230.334 27.1339C230.409 27.3074 230.548 27.3942 230.768 27.3942C231.115 27.3942 231.201 27.2496 231.242 27.1455C231.317 26.9315 231.352 26.6655 231.352 26.3532V9.58108C231.352 9.35553 231.294 9.17045 231.172 9.02008C231.057 8.88128 230.924 8.81188 230.75 8.81188C230.432 8.81188 230.126 9.03744 229.836 9.47698L219.212 25.4509L208.588 9.47698C208.293 9.03744 207.981 8.81188 207.674 8.81188C207.506 8.81188 207.368 8.88128 207.252 9.02008C207.13 9.17045 207.073 9.35553 207.073 9.58108V26.3532C207.073 26.6655 207.107 26.9315 207.182 27.1455C207.217 27.2554 207.31 27.3942 207.657 27.3942C207.882 27.3942 208.015 27.3132 208.091 27.1339C208.177 26.9199 208.224 26.6597 208.224 26.3532V10.8361L218.501 26.0004C218.923 26.6539 219.42 26.7117 219.924 26.0004L230.201 10.8361Z" fill="white"/>
<path d="M237.355 27.5385C237.141 27.5385 237.013 27.5038 236.973 27.4344C236.932 27.365 236.915 27.203 236.915 26.9428V9.45933C236.915 9.12967 236.938 8.91568 236.984 8.81736C237.031 8.71904 237.216 8.66699 237.545 8.66699H253.016C253.346 8.66699 253.635 8.68434 253.89 8.71904C254.144 8.75374 254.271 8.93303 254.271 9.26269C254.271 9.54608 254.144 9.70224 253.89 9.73694C253.635 9.77164 253.346 9.78899 253.016 9.78899H238.361V17.2092H252.935C253.184 17.2092 253.392 17.2439 253.56 17.3133C253.728 17.3827 253.814 17.5273 253.814 17.7528C253.814 18.0015 253.745 18.1635 253.6 18.2444C253.456 18.3254 253.277 18.3659 253.051 18.3659H238.361V26.4338H253.051C253.381 26.4338 253.67 26.4512 253.924 26.4859C254.179 26.5206 254.306 26.6767 254.306 26.9601C254.306 27.2898 254.202 27.4633 253.994 27.4922C253.785 27.5211 253.514 27.5385 253.19 27.55H237.366L237.355 27.5385Z" fill="white"/>
<path d="M237.356 27.6831C237.078 27.6831 236.922 27.6311 236.847 27.5096C236.812 27.446 236.766 27.3245 236.766 26.9428V9.45939C236.766 8.99092 236.812 8.83477 236.847 8.75958C236.922 8.59186 237.136 8.52246 237.541 8.52246H253.011C253.347 8.52246 253.642 8.53981 253.902 8.57451C254.093 8.59765 254.411 8.72488 254.411 9.26275C254.411 9.61554 254.232 9.83531 253.902 9.88158C253.642 9.91628 253.341 9.93363 253.011 9.93363H238.501V17.0647H252.93C253.196 17.0647 253.428 17.1051 253.613 17.1745C253.769 17.2382 253.96 17.3885 253.96 17.7471C253.96 18.0536 253.862 18.2561 253.677 18.3659C253.515 18.4585 253.306 18.5047 253.058 18.5047H238.512V26.2835H253.058C253.393 26.2835 253.688 26.3009 253.948 26.3356C254.272 26.3818 254.457 26.6016 254.457 26.9544C254.457 27.4633 254.22 27.6021 254.018 27.6311C253.804 27.66 253.532 27.6773 253.196 27.6889H237.367L237.356 27.6831ZM237.101 27.365C237.101 27.365 237.159 27.3939 237.356 27.3939H253.179C253.497 27.3824 253.763 27.365 253.966 27.3361C254.018 27.3303 254.157 27.313 254.157 26.9486C254.157 26.6884 254.035 26.6363 253.902 26.619C253.653 26.5843 253.37 26.5669 253.046 26.5669H238.211V18.2098H253.046C253.249 18.2098 253.405 18.1751 253.526 18.1115C253.619 18.0594 253.665 17.938 253.665 17.7471C253.665 17.5331 253.578 17.4695 253.503 17.4406C253.353 17.377 253.156 17.348 252.93 17.348H238.211V9.63867H253.011C253.329 9.63867 253.619 9.62132 253.867 9.58662C254 9.56927 254.122 9.51722 254.122 9.25696C254.122 8.93309 253.995 8.87525 253.867 8.8579C253.619 8.8232 253.335 8.80585 253.011 8.80585H237.541C237.17 8.80585 237.113 8.87525 237.113 8.87525C237.095 8.92152 237.061 9.05454 237.061 9.45939V26.9428C237.061 27.2783 237.095 27.3535 237.101 27.3592V27.365Z" fill="white"/>
<path d="M27.5127 10.5123C27.5069 10.4371 27.4954 10.3677 27.4665 10.2983C27.4607 10.281 27.4491 10.2636 27.4433 10.2463C27.3855 10.1017 27.2987 9.96865 27.1542 9.85876L14.8411 0.477964C14.5057 0.223491 14.043 0.223491 13.7018 0.477964L1.38877 9.85876C1.2384 9.97443 1.14587 10.119 1.08803 10.2694C1.05333 10.3677 1.0302 10.466 1.0302 10.5701C1.0302 10.5817 1.02441 10.5933 1.02441 10.6048V26.839C1.02441 27.3133 1.41191 27.7008 1.88615 27.7008H9.24852C9.24852 27.7008 9.24852 27.6834 9.24852 27.6777V17.6607C9.24852 17.3946 9.30057 17.1633 9.39889 16.9724C9.51456 16.7469 9.75168 16.6312 10.1045 16.6312C10.4573 16.6312 10.6308 16.8221 10.6944 16.9782C10.7696 17.1633 10.8101 17.3946 10.8101 17.6607V18.6323C11.0645 18.1291 11.4058 17.7301 11.8453 17.4293C12.4815 16.9898 13.1813 16.6948 13.9273 16.5445C14.6619 16.3999 15.3154 16.3247 15.8648 16.3247C16.6861 16.3247 17.276 16.3652 17.6693 16.4519C18.0568 16.5387 18.3864 16.6196 18.6814 16.7064C18.9648 16.7874 19.1209 17.0071 19.1209 17.3252C19.1209 17.493 19.0631 17.6549 18.9532 17.7937C18.8317 17.9498 18.6582 18.025 18.4327 18.025C18.3691 18.025 18.3286 18.025 18.2939 18.0077C18.2881 18.0077 18.2534 17.9961 18.2129 17.9903C17.8023 17.8747 17.4148 17.7879 17.0446 17.7243C16.6803 17.6607 16.2812 17.6318 15.8648 17.6318C14.6619 17.6318 13.5861 17.8689 12.655 18.3431C12.2964 18.5224 11.9841 18.748 11.7181 19.0082C11.1108 19.6039 10.8043 20.4483 10.8043 21.3043V27.6834C10.8043 27.6834 10.8043 27.7008 10.8043 27.7066H26.6741C27.1484 27.7066 27.5359 27.3191 27.5359 26.8448V10.6106C27.5359 10.5759 27.5185 10.547 27.5185 10.5123H27.5127Z" fill="white"/>
</g>
<defs>
<clipPath id="clip0_2_258">
<rect width="254.074" height="28" fill="white" transform="translate(0.962891)"/>
</clipPath>
</defs>
</svg>
